<svg class="icon" viewBox="0 0 1024 1024" xmlns="http://www.w3.org/2000/svg" width="200" height="200"><defs><style/></defs><path d="M789.4 390.2H191.1c-13.8 0-25-11.2-25-25V93c0-13.8 11.2-25 25-25h598.3c13.8 0 25 11.2 25 25v272.2c0 13.8-11.2 25-25 25zm-593.3-30h588.3V98H196.1v262.2z" fill="#515151"/><path d="M113.3 277.1c-8.3 0-15-6.7-15-15v-23c0-13.8 11.2-25 25-25h57.8c8.3 0 15 6.7 15 15s-6.7 15-15 15h-52.8v18c0 8.3-6.7 15-15 15zm377 326.5c-8.3 0-15-6.7-15-15V477.8c0-13.8 11.2-25 25-25H850c25.1 0 45.6-20.5 45.6-45.6V289.7c0-25.1-20.5-45.6-45.6-45.6h-50.6c-8.3 0-15-6.7-15-15s6.7-15 15-15H850c41.7 0 75.6 33.9 75.6 75.6v117.5c0 41.7-33.9 75.6-75.6 75.6H505.3v105.8c0 8.3-6.7 15-15 15z" fill="#515151"/><path d="M532.4 957h-84.3c-13.8 0-25-11.2-25-25V605.5c0-13.8 11.2-25 25-25h84.3c13.8 0 25 11.2 25 25V932c0 13.8-11.2 25-25 25zm-79.3-30h74.3V610.5h-74.3V927zm-36.7-761.9h-42c-8.3 0-15-6.7-15-15s6.7-15 15-15h42c8.3 0 15 6.7 15 15s-6.7 15-15 15zm294 0H465.9c-8.3 0-15-6.7-15-15s6.7-15 15-15h244.5c8.3 0 15 6.7 15 15s-6.7 15-15 15z" fill="#515151"/></svg>